<svg xmlns="http://www.w3.org/2000/svg" viewBox="0 0 166.75 67.48"><title>logo_bagarote_fb</title><path d="M93.28,45.12l-.17-.1-.21-.08-.24,0-.24,0a1.1,1.1,0,0,0-.39.06.79.79,0,0,0-.25.17.7.7,0,0,0-.14.21.66.66,0,0,0,0,.23.61.61,0,0,0,0,.24.71.71,0,0,0,.11.21.89.89,0,0,0,.19.2l.28.22c.12.08.22.17.32.25a2.91,2.91,0,0,1,.24.27.92.92,0,0,1,.14.28.83.83,0,0,1,0,.32.93.93,0,0,1,0,.23.87.87,0,0,1-.08.26.73.73,0,0,1-.15.25.76.76,0,0,1-.25.22,1,1,0,0,1-.36.15,1.85,1.85,0,0,1-.5.06l-.32,0L91,48.62a1.58,1.58,0,0,1-.26-.09l-.2-.09.08-.5a1.05,1.05,0,0,0,.21.12l.25.11.28.07a1.27,1.27,0,0,0,.28,0,1,1,0,0,0,.37,0,.65.65,0,0,0,.26-.14.51.51,0,0,0,.15-.21.86.86,0,0,0,0-.27.73.73,0,0,0,0-.23.8.8,0,0,0-.13-.21,1.37,1.37,0,0,0-.21-.2l-.3-.23a1.39,1.39,0,0,1-.27-.21,1.43,1.43,0,0,1-.23-.26,1.4,1.4,0,0,1-.15-.3,1,1,0,0,1,0-.35,1.12,1.12,0,0,1,.08-.45,1.18,1.18,0,0,1,.26-.37,1.22,1.22,0,0,1,.43-.25,1.78,1.78,0,0,1,.59-.1l.26,0,.25,0,.23.06.19.07Z" style="fill:#d1d3d4"/><path d="M96.59,46.77a2.67,2.67,0,0,1-.11.75,2,2,0,0,1-.32.61A1.45,1.45,0,0,1,95,48.7a1.14,1.14,0,0,1-.46-.08.89.89,0,0,1-.34-.23A.91.91,0,0,1,94,48a1.42,1.42,0,0,1-.08-.48,2.37,2.37,0,0,1,.12-.76,1.8,1.8,0,0,1,.33-.61,1.51,1.51,0,0,1,.5-.41,1.44,1.44,0,0,1,.65-.15,1.34,1.34,0,0,1,.46.08,1,1,0,0,1,.34.23,1.16,1.16,0,0,1,.23.37A1.42,1.42,0,0,1,96.59,46.77Zm-.49,0a1.18,1.18,0,0,0,0-.34.92.92,0,0,0-.13-.24.55.55,0,0,0-.2-.15.6.6,0,0,0-.27-.06.91.91,0,0,0-.46.13,1.22,1.22,0,0,0-.34.34,1.67,1.67,0,0,0-.22.49,2,2,0,0,0-.08.55,1.07,1.07,0,0,0,0,.32.66.66,0,0,0,.13.25.43.43,0,0,0,.2.15.6.6,0,0,0,.27.06.82.82,0,0,0,.46-.13,1.1,1.1,0,0,0,.34-.34,1.51,1.51,0,0,0,.22-.48A2,2,0,0,0,96.1,46.8Z" style="fill:#d1d3d4"/><path d="M98.3,48.62l-.16,0H98a.6.6,0,0,1-.44-.15.53.53,0,0,1-.14-.39,1.15,1.15,0,0,1,0-.16,1.41,1.41,0,0,1,0-.25l.74-3.46h.48l-.74,3.48,0,.18a.49.49,0,0,0,0,.11.24.24,0,0,0,.06.18.28.28,0,0,0,.21.07h.13l.11,0Z" style="fill:#d1d3d4"/><path d="M101.6,47.79c0,.08,0,.15,0,.24s0,.15,0,.23l0,.21c0,.06,0,.12,0,.16H101a2.23,2.23,0,0,1,0-.23c0-.09,0-.16,0-.23a2,2,0,0,0,0-.24h0a2.32,2.32,0,0,1-.22.3,2.11,2.11,0,0,1-.27.25,1.08,1.08,0,0,1-.3.16,1,1,0,0,1-.33.06.9.9,0,0,1-.34-.06.63.63,0,0,1-.23-.16.74.74,0,0,1-.15-.26,1.15,1.15,0,0,1,0-.33.49.49,0,0,1,0-.11c0-.05,0-.11,0-.17s0-.11,0-.17l0-.14.34-1.62h.48l-.37,1.73s0,.07,0,.11a.5.5,0,0,0,0,.12s0,.07,0,.11v.08a.51.51,0,0,0,.1.34.38.38,0,0,0,.32.13.74.74,0,0,0,.25,0,1.57,1.57,0,0,0,.25-.14,1.45,1.45,0,0,0,.22-.21,1.43,1.43,0,0,0,.19-.24,1.82,1.82,0,0,0,.15-.27,1.71,1.71,0,0,0,.09-.27l.31-1.44h.47Z" style="fill:#d1d3d4"/><path d="M104.57,48.49a1.92,1.92,0,0,1-.37.15,1.29,1.29,0,0,1-.4.06l0,.23.2,0a.4.4,0,0,1,.16.08.32.32,0,0,1,.11.12.29.29,0,0,1,0,.16.47.47,0,0,1-.21.41,1,1,0,0,1-.63.16h-.25l0-.25.22,0a.7.7,0,0,0,.37-.08.21.21,0,0,0,.12-.19.19.19,0,0,0-.08-.16.45.45,0,0,0-.26-.06h-.16l.1-.48a1,1,0,0,1-.35-.15,1,1,0,0,1-.25-.25,1.09,1.09,0,0,1-.15-.35,1.86,1.86,0,0,1,0-.42,2.61,2.61,0,0,1,0-.48,1.76,1.76,0,0,1,.15-.44,1.9,1.9,0,0,1,.23-.39,1.55,1.55,0,0,1,.33-.3,1.44,1.44,0,0,1,.41-.21,1.85,1.85,0,0,1,.48-.07l.24,0,.2,0,.17.07.11.06-.11.47a1,1,0,0,0-.29-.18.92.92,0,0,0-.38-.08,1,1,0,0,0-.35.07,1.12,1.12,0,0,0-.29.19,1.09,1.09,0,0,0-.21.26,2.2,2.2,0,0,0-.15.31,2.14,2.14,0,0,0-.08.32,1.69,1.69,0,0,0,0,.3,1,1,0,0,0,.18.63.63.63,0,0,0,.5.21,1.18,1.18,0,0,0,.39-.08,1.79,1.79,0,0,0,.39-.2Z" style="fill:#d1d3d4"/><path d="M108.3,46.77a2.67,2.67,0,0,1-.11.75,1.78,1.78,0,0,1-.32.61,1.48,1.48,0,0,1-.51.42,1.44,1.44,0,0,1-.67.15,1.06,1.06,0,0,1-.45-.08.93.93,0,0,1-.35-.23,1,1,0,0,1-.22-.37,1.43,1.43,0,0,1-.07-.48,2.68,2.68,0,0,1,.11-.76,2,2,0,0,1,.33-.61,1.45,1.45,0,0,1,.51-.41,1.38,1.38,0,0,1,.65-.15,1.25,1.25,0,0,1,.45.08,1.07,1.07,0,0,1,.35.23,1,1,0,0,1,.22.37A1.21,1.21,0,0,1,108.3,46.77Zm-.48,0a1.16,1.16,0,0,0,0-.34.7.7,0,0,0-.13-.24.43.43,0,0,0-.2-.15.58.58,0,0,0-.26-.06.91.91,0,0,0-.46.13,1.26,1.26,0,0,0-.35.34,2.1,2.1,0,0,0-.29,1,.83.83,0,0,0,0,.32.65.65,0,0,0,.12.25.48.48,0,0,0,.2.15.6.6,0,0,0,.27.06.8.8,0,0,0,.46-.13,1.13,1.13,0,0,0,.35-.34,1.75,1.75,0,0,0,.21-.48A2,2,0,0,0,107.82,46.8Zm.49-2.37a1,1,0,0,1-.06.25.69.69,0,0,1-.13.2.72.72,0,0,1-.2.14.61.61,0,0,1-.24,0,.53.53,0,0,1-.23,0,.56.56,0,0,1-.17-.09l-.14-.09a.24.24,0,0,0-.15,0,.32.32,0,0,0-.24.09.46.46,0,0,0-.09.23h-.28a.92.92,0,0,1,.06-.25.77.77,0,0,1,.14-.21,1.37,1.37,0,0,1,.2-.13.75.75,0,0,1,.26,0,.46.46,0,0,1,.21,0,.78.78,0,0,1,.15.1l.15.09a.28.28,0,0,0,.16.05l.12,0,.1-.07a.41.41,0,0,0,.07-.11.5.5,0,0,0,0-.13Z" style="fill:#d1d3d4"/><path d="M111.58,46.37a.89.89,0,0,1-.11.43.83.83,0,0,1-.34.33,2.11,2.11,0,0,1-.63.21,6.2,6.2,0,0,1-1,.08v.12a.92.92,0,0,0,0,.29.53.53,0,0,0,.14.24.58.58,0,0,0,.23.17.86.86,0,0,0,.34.06,1.46,1.46,0,0,0,.43-.08,2.11,2.11,0,0,0,.46-.21l-.09.46a1.67,1.67,0,0,1-.38.16,1.53,1.53,0,0,1-.49.07,1.29,1.29,0,0,1-.55-.1,1,1,0,0,1-.36-.27,1,1,0,0,1-.19-.39,1.7,1.7,0,0,1-.06-.46,2.07,2.07,0,0,1,0-.5,1.92,1.92,0,0,1,.17-.44,1.67,1.67,0,0,1,.25-.38,1.52,1.52,0,0,1,.32-.3,1.46,1.46,0,0,1,.38-.18,1.36,1.36,0,0,1,.83,0,.82.82,0,0,1,.29.17.69.69,0,0,1,.18.24A.72.72,0,0,1,111.58,46.37Zm-.48,0a.36.36,0,0,0-.14-.29.61.61,0,0,0-.35-.1.81.81,0,0,0-.34.08,1,1,0,0,0-.3.21,1.08,1.08,0,0,0-.24.32,1.38,1.38,0,0,0-.15.4,4.72,4.72,0,0,0,.7,0,2.12,2.12,0,0,0,.47-.12.62.62,0,0,0,.26-.2A.43.43,0,0,0,111.1,46.4Z" style="fill:#d1d3d4"/><path d="M114.07,46.2a1.28,1.28,0,0,0-.29-.13.91.91,0,0,0-.32-.06.66.66,0,0,0-.42.13.42.42,0,0,0-.12.48.46.46,0,0,0,.08.13.77.77,0,0,0,.13.12l.19.12a1.62,1.62,0,0,1,.47.39.77.77,0,0,1,.14.44,1,1,0,0,1-.06.33.76.76,0,0,1-.2.28,1.07,1.07,0,0,1-.35.2,1.6,1.6,0,0,1-.52.07h-.19l-.21,0-.2-.06a.67.67,0,0,1-.17-.08l.1-.45a.56.56,0,0,0,.14.09l.18.07.21.05.21,0a.63.63,0,0,0,.43-.12.37.37,0,0,0,.15-.32.28.28,0,0,0,0-.13.33.33,0,0,0-.07-.13l-.15-.13-.22-.14a1.37,1.37,0,0,1-.43-.38.67.67,0,0,1-.14-.43,1,1,0,0,1,.06-.35.9.9,0,0,1,.2-.28.91.91,0,0,1,.33-.2,1.3,1.3,0,0,1,.46-.08,1.75,1.75,0,0,1,.4,0,1.25,1.25,0,0,1,.31.11Z" style="fill:#d1d3d4"/><path d="M119.28,46.37a.89.89,0,0,1-.11.43.78.78,0,0,1-.34.33,2.11,2.11,0,0,1-.63.21,6.17,6.17,0,0,1-1,.08.13.13,0,0,0,0,.06v.06a.92.92,0,0,0,0,.29.63.63,0,0,0,.14.24.58.58,0,0,0,.23.17.86.86,0,0,0,.34.06,1.41,1.41,0,0,0,.43-.08,2.11,2.11,0,0,0,.46-.21l-.09.46a1.67,1.67,0,0,1-.38.16,1.53,1.53,0,0,1-.49.07,1.29,1.29,0,0,1-.55-.1,1,1,0,0,1-.36-.27,1,1,0,0,1-.19-.39,1.7,1.7,0,0,1-.06-.46,2.73,2.73,0,0,1,0-.5,1.92,1.92,0,0,1,.17-.44,1.67,1.67,0,0,1,.25-.38,1.81,1.81,0,0,1,.32-.3,1.38,1.38,0,0,1,.39-.18,1.16,1.16,0,0,1,.42-.07,1.25,1.25,0,0,1,.4.06.82.82,0,0,1,.29.17.69.69,0,0,1,.18.24A.72.72,0,0,1,119.28,46.37Zm-.48,0a.36.36,0,0,0-.14-.29.61.61,0,0,0-.35-.1.81.81,0,0,0-.34.08,1,1,0,0,0-.3.21,1.08,1.08,0,0,0-.24.32,1.38,1.38,0,0,0-.15.4,4.64,4.64,0,0,0,.7,0,2.12,2.12,0,0,0,.47-.12.62.62,0,0,0,.26-.2A.43.43,0,0,0,118.8,46.4Z" style="fill:#d1d3d4"/><path d="M124.44,46.43a.54.54,0,0,1,0,.11c0,.05,0,.1,0,.16a1.36,1.36,0,0,0,0,.17,1,1,0,0,0,0,.15L124,48.63h-.47l.36-1.73a.52.52,0,0,1,0-.11s0-.08,0-.12,0-.07,0-.1v-.08a.5.5,0,0,0-.1-.35.36.36,0,0,0-.3-.13.68.68,0,0,0-.23.05,1.35,1.35,0,0,0-.22.14,2.09,2.09,0,0,0-.22.2,2.27,2.27,0,0,0-.18.25,1.82,1.82,0,0,0-.15.27,1.43,1.43,0,0,0-.09.27l-.31,1.44h-.47L122,46.9a.36.36,0,0,0,0-.11l0-.12s0-.07,0-.1a.28.28,0,0,0,0-.08.56.56,0,0,0-.1-.35.39.39,0,0,0-.31-.13.68.68,0,0,0-.23.05,2,2,0,0,0-.23.14,2.08,2.08,0,0,0-.21.21,2.23,2.23,0,0,0-.19.24c0,.09-.1.18-.14.27a1.43,1.43,0,0,0-.09.27l-.31,1.44h-.47l.45-2.1c0-.08,0-.16,0-.24s0-.16,0-.23l0-.22,0-.16h.46a2,2,0,0,1,0,.24l0,.22c0,.08,0,.16,0,.24h0a3.55,3.55,0,0,1,.23-.31,1.88,1.88,0,0,1,.25-.24,1.18,1.18,0,0,1,.29-.16.73.73,0,0,1,.3-.06.79.79,0,0,1,.32.06.54.54,0,0,1,.22.15.7.7,0,0,1,.13.24,1.42,1.42,0,0,1,.06.31l.22-.3a2,2,0,0,1,.27-.24,1.18,1.18,0,0,1,.29-.16,1,1,0,0,1,.33-.06.69.69,0,0,1,.56.22A.9.9,0,0,1,124.44,46.43Z" style="fill:#d1d3d4"/><path d="M129.71,46.37a.89.89,0,0,1-.11.43.83.83,0,0,1-.34.33,2.11,2.11,0,0,1-.63.21,6.2,6.2,0,0,1-1,.08v.12a.92.92,0,0,0,0,.29.62.62,0,0,0,.37.41.86.86,0,0,0,.34.06,1.46,1.46,0,0,0,.43-.08,2.11,2.11,0,0,0,.46-.21l-.09.46a1.89,1.89,0,0,1-.38.16,1.53,1.53,0,0,1-.49.07,1.29,1.29,0,0,1-.55-.1,1,1,0,0,1-.36-.27,1,1,0,0,1-.19-.39,1.39,1.39,0,0,1-.07-.46,2.07,2.07,0,0,1,.06-.5,1.91,1.91,0,0,1,.16-.44,1.7,1.7,0,0,1,.26-.38,1.52,1.52,0,0,1,.32-.3,1.46,1.46,0,0,1,.38-.18,1.36,1.36,0,0,1,.83,0,.92.92,0,0,1,.29.17.69.69,0,0,1,.18.24A.72.72,0,0,1,129.71,46.37Zm-.48,0a.36.36,0,0,0-.14-.29.63.63,0,0,0-.35-.1.81.81,0,0,0-.34.08,1,1,0,0,0-.3.21,1.08,1.08,0,0,0-.24.32,1.38,1.38,0,0,0-.15.4,4.72,4.72,0,0,0,.7,0,2.12,2.12,0,0,0,.47-.12.62.62,0,0,0,.26-.2A.43.43,0,0,0,129.23,46.4Z" style="fill:#d1d3d4"/><path d="M132.06,47.17h-1.57l.08-.37h1.58Z" style="fill:#d1d3d4"/><path d="M135.25,46.27a1.19,1.19,0,0,0-.29-.18,1,1,0,0,0-.38-.08,1,1,0,0,0-.36.07,1.07,1.07,0,0,0-.28.19,1.09,1.09,0,0,0-.21.26,2.2,2.2,0,0,0-.15.31,2.23,2.23,0,0,0-.09.32c0,.11,0,.21,0,.3a1,1,0,0,0,.18.63.61.61,0,0,0,.49.21,1.19,1.19,0,0,0,.4-.08,2,2,0,0,0,.38-.2l-.1.47a2,2,0,0,1-.37.16,1.6,1.6,0,0,1-.39.05,1.13,1.13,0,0,1-.47-.09,1,1,0,0,1-.34-.25,1.23,1.23,0,0,1-.19-.38,1.51,1.51,0,0,1-.07-.48,2.61,2.61,0,0,1,0-.48,2.25,2.25,0,0,1,.14-.44,2.55,2.55,0,0,1,.24-.39,1.5,1.5,0,0,1,.32-.3,1.59,1.59,0,0,1,.41-.21,1.87,1.87,0,0,1,.49-.07l.23,0,.21,0,.16.07.12.06Z" style="fill:#d1d3d4"/><path d="M138.51,46.77a2.67,2.67,0,0,1-.11.75,2,2,0,0,1-.32.61,1.45,1.45,0,0,1-1.18.57,1.14,1.14,0,0,1-.46-.08.89.89,0,0,1-.34-.23.91.91,0,0,1-.22-.37,1.42,1.42,0,0,1-.08-.48,2.37,2.37,0,0,1,.12-.76,2,2,0,0,1,.33-.61,1.51,1.51,0,0,1,.5-.41,1.44,1.44,0,0,1,.65-.15,1.34,1.34,0,0,1,.46.08,1,1,0,0,1,.34.23,1.16,1.16,0,0,1,.23.37A1.42,1.42,0,0,1,138.51,46.77Zm-.49,0a1.18,1.18,0,0,0,0-.34.92.92,0,0,0-.13-.24.55.55,0,0,0-.2-.15.6.6,0,0,0-.27-.06.91.91,0,0,0-.46.13,1.22,1.22,0,0,0-.34.34,1.67,1.67,0,0,0-.22.49,2,2,0,0,0-.07.55,1.08,1.08,0,0,0,0,.32.66.66,0,0,0,.13.25.43.43,0,0,0,.2.15.6.6,0,0,0,.27.06.82.82,0,0,0,.46-.13,1.1,1.1,0,0,0,.34-.34,1.51,1.51,0,0,0,.22-.48A2,2,0,0,0,138,46.8Z" style="fill:#d1d3d4"/><path d="M143.78,46.43a.54.54,0,0,1,0,.11,1,1,0,0,1,0,.16l0,.17c0,.06,0,.11,0,.15l-.35,1.61h-.47l.36-1.73a.52.52,0,0,1,0-.11s0-.08,0-.12,0-.07,0-.1v-.08a.56.56,0,0,0-.09-.35.39.39,0,0,0-.31-.13.68.68,0,0,0-.23.05,1.35,1.35,0,0,0-.22.14,2.09,2.09,0,0,0-.22.2,2.27,2.27,0,0,0-.18.25,1.82,1.82,0,0,0-.15.27,1.43,1.43,0,0,0-.09.27l-.31,1.44H141l.36-1.73,0-.11a.5.5,0,0,1,0-.12s0-.07,0-.1a.28.28,0,0,0,0-.08.56.56,0,0,0-.1-.35.38.38,0,0,0-.3-.13.59.59,0,0,0-.23.05,1.09,1.09,0,0,0-.23.14,1.45,1.45,0,0,0-.22.21,2.23,2.23,0,0,0-.19.24c-.05.09-.1.18-.14.27a1.43,1.43,0,0,0-.09.27l-.31,1.44h-.47l.45-2.1c0-.08,0-.16,0-.24s0-.16,0-.23a1.92,1.92,0,0,0,0-.22l0-.16h.46a2,2,0,0,1,0,.24l0,.22a2,2,0,0,1,0,.24h0a3.55,3.55,0,0,1,.23-.31,1.88,1.88,0,0,1,.25-.24,1.18,1.18,0,0,1,.29-.16.77.77,0,0,1,.3-.06.79.79,0,0,1,.32.06.48.48,0,0,1,.22.15.7.7,0,0,1,.13.24,1.42,1.42,0,0,1,.06.31l.22-.3a2,2,0,0,1,.27-.24,1.18,1.18,0,0,1,.29-.16,1,1,0,0,1,.34-.06.67.67,0,0,1,.55.22A.9.9,0,0,1,143.78,46.43Z" style="fill:#d1d3d4"/><path d="M149.13,46.43a.54.54,0,0,1,0,.11,1,1,0,0,1,0,.16.85.85,0,0,1,0,.17,1,1,0,0,0,0,.15l-.35,1.61h-.47l.36-1.73a.52.52,0,0,1,0-.11s0-.08,0-.12,0-.07,0-.1v-.08a.56.56,0,0,0-.09-.35.39.39,0,0,0-.31-.13.68.68,0,0,0-.23.05,1.35,1.35,0,0,0-.22.14,2.09,2.09,0,0,0-.22.2,2.27,2.27,0,0,0-.18.25,1.82,1.82,0,0,0-.15.27,1.43,1.43,0,0,0-.09.27l-.31,1.44h-.47l.36-1.73,0-.11a.5.5,0,0,1,0-.12s0-.07,0-.1a.28.28,0,0,0,0-.08.56.56,0,0,0-.1-.35.38.38,0,0,0-.3-.13.59.59,0,0,0-.23.05,1.09,1.09,0,0,0-.23.14,1.45,1.45,0,0,0-.22.21,2.23,2.23,0,0,0-.19.24c-.05.09-.1.18-.14.27a1.43,1.43,0,0,0-.09.27L145,48.63h-.47l.45-2.1c0-.08,0-.16.05-.24s0-.16,0-.23,0-.15,0-.22l0-.16h.46a2,2,0,0,1,0,.24l0,.22a2,2,0,0,1,0,.24h0a3.55,3.55,0,0,1,.23-.31,1.88,1.88,0,0,1,.25-.24,1.18,1.18,0,0,1,.29-.16.77.77,0,0,1,.3-.06.79.79,0,0,1,.32.06.48.48,0,0,1,.22.15.7.7,0,0,1,.13.24,1.42,1.42,0,0,1,.06.31,3,3,0,0,1,.23-.3,1.48,1.48,0,0,1,.26-.24,1.18,1.18,0,0,1,.29-.16,1,1,0,0,1,.34-.06.67.67,0,0,1,.55.22A.9.9,0,0,1,149.13,46.43Z" style="fill:#d1d3d4"/><path d="M152.48,46.37a.88.88,0,0,1-.1.43.83.83,0,0,1-.34.33,2.11,2.11,0,0,1-.63.21,6.31,6.31,0,0,1-1,.08s0,0,0,.06v.06a.93.93,0,0,0,0,.29.62.62,0,0,0,.13.24.66.66,0,0,0,.23.17.9.9,0,0,0,.34.06,1.52,1.52,0,0,0,.44-.08,1.85,1.85,0,0,0,.45-.21l-.09.46a1.58,1.58,0,0,1-.37.16,1.53,1.53,0,0,1-.49.07,1.29,1.29,0,0,1-.55-.1,1,1,0,0,1-.36-.27,1,1,0,0,1-.2-.39,1.7,1.7,0,0,1-.06-.46A2.07,2.07,0,0,1,150,47a1.91,1.91,0,0,1,.16-.44,1.67,1.67,0,0,1,.25-.38,1.87,1.87,0,0,1,.33-.3,1.33,1.33,0,0,1,.38-.18,1.23,1.23,0,0,1,.42-.07,1.2,1.2,0,0,1,.4.06.87.87,0,0,1,.3.17.81.81,0,0,1,.17.24A.72.72,0,0,1,152.48,46.37Zm-.48,0a.35.35,0,0,0-.13-.29.64.64,0,0,0-.36-.1.84.84,0,0,0-.34.08,1,1,0,0,0-.3.21,1.57,1.57,0,0,0-.24.32,1.72,1.72,0,0,0-.14.4,4.81,4.81,0,0,0,.7,0,2,2,0,0,0,.46-.12.66.66,0,0,0,.27-.2A.5.5,0,0,0,152,46.4Z" style="fill:#d1d3d4"/><path d="M155.09,46.18h0l-.15-.06a.39.39,0,0,0-.18,0,.54.54,0,0,0-.32.11,1,1,0,0,0-.28.29,1.89,1.89,0,0,0-.22.4,3.68,3.68,0,0,0-.15.47l-.27,1.28H153l.41-2a1.84,1.84,0,0,0,.05-.25c0-.09,0-.18.05-.26s0-.18,0-.26l0-.22h.46a1.37,1.37,0,0,1,0,.19c0,.06,0,.12,0,.18a1.11,1.11,0,0,0,0,.17.65.65,0,0,0,0,.11h0a2.2,2.2,0,0,1,.19-.3,1.42,1.42,0,0,1,.2-.22,1.07,1.07,0,0,1,.22-.15.71.71,0,0,1,.26,0l.16,0,.14,0Z" style="fill:#d1d3d4"/><path d="M157.75,46.27a1.19,1.19,0,0,0-.29-.18,1,1,0,0,0-.38-.08,1,1,0,0,0-.36.07,1.07,1.07,0,0,0-.28.19,1.09,1.09,0,0,0-.21.26,2.2,2.2,0,0,0-.15.31,2.23,2.23,0,0,0-.09.32c0,.11,0,.21,0,.3a1,1,0,0,0,.18.63.61.61,0,0,0,.49.21,1.19,1.19,0,0,0,.4-.08,2,2,0,0,0,.38-.2l-.1.47a2,2,0,0,1-.37.16,1.6,1.6,0,0,1-.39.05,1.13,1.13,0,0,1-.47-.09,1,1,0,0,1-.34-.25,1.23,1.23,0,0,1-.19-.38,1.51,1.51,0,0,1-.07-.48,2.61,2.61,0,0,1,0-.48,2.25,2.25,0,0,1,.14-.44,2.55,2.55,0,0,1,.24-.39,1.5,1.5,0,0,1,.32-.3,1.59,1.59,0,0,1,.41-.21,1.87,1.87,0,0,1,.49-.07l.23,0,.21,0,.16.07.12.06Z" style="fill:#d1d3d4"/><path d="M160.83,46.37a.89.89,0,0,1-.11.43.78.78,0,0,1-.34.33,2.11,2.11,0,0,1-.63.21,6.17,6.17,0,0,1-1,.08.13.13,0,0,0,0,.06v.06a.92.92,0,0,0,0,.29.63.63,0,0,0,.14.24.58.58,0,0,0,.23.17.86.86,0,0,0,.34.06,1.41,1.41,0,0,0,.43-.08,2.11,2.11,0,0,0,.46-.21l-.09.46a1.67,1.67,0,0,1-.38.16,1.53,1.53,0,0,1-.49.07,1.29,1.29,0,0,1-.55-.1,1,1,0,0,1-.36-.27,1,1,0,0,1-.19-.39,1.7,1.7,0,0,1-.06-.46,2.07,2.07,0,0,1,0-.5,1.92,1.92,0,0,1,.17-.44,1.67,1.67,0,0,1,.25-.38,1.81,1.81,0,0,1,.32-.3,1.38,1.38,0,0,1,.39-.18,1.16,1.16,0,0,1,.42-.07,1.25,1.25,0,0,1,.4.06.82.82,0,0,1,.29.17.69.69,0,0,1,.18.24A.72.72,0,0,1,160.83,46.37Zm-.48,0a.36.36,0,0,0-.14-.29.61.61,0,0,0-.35-.1.81.81,0,0,0-.34.08,1,1,0,0,0-.3.21,1.28,1.28,0,0,0-.24.32,1.38,1.38,0,0,0-.15.4,4.64,4.64,0,0,0,.7,0,2.12,2.12,0,0,0,.47-.12.62.62,0,0,0,.26-.2A.43.43,0,0,0,160.35,46.4Z" style="fill:#d1d3d4"/><path d="M114,26.57c0-.12.1-.42.19-.76s.14-.51.18-.68h-4c0,.3-.07.63-.13,1s-.14,1-.22,1.52-.18,1.05-.28,1.59-.19,1.07-.29,1.58l-2,10.1h4.13l1.31-6.65a12.56,12.56,0,0,1,.62-2.13,7,7,0,0,1,1-1.8,4.87,4.87,0,0,1,1.36-1.25,3.5,3.5,0,0,1,2.8-.31L119,29l.7-3.52a9.39,9.39,0,0,0-2-.22C116.6,25.21,114.82,25.36,114,26.57Z" style="fill:#fff"/><path d="M133.76,26.51a5.47,5.47,0,0,0-2-1.32,7.58,7.58,0,0,0-2.75-.47,9.16,9.16,0,0,0-2.87.42,8.27,8.27,0,0,0-2.26,1.14A8,8,0,0,0,122.2,28,10.11,10.11,0,0,0,121,30a11.12,11.12,0,0,0-.68,2.31,12.75,12.75,0,0,0-.23,2.36,8.66,8.66,0,0,0,.4,2.65,5.54,5.54,0,0,0,1.16,2.09,5.42,5.42,0,0,0,2,1.38,7.41,7.41,0,0,0,2.88.51,9.22,9.22,0,0,0,2.94-.44,8.23,8.23,0,0,0,2.27-1.16A7.52,7.52,0,0,0,133.42,38a10.07,10.07,0,0,0,1.13-2.12,11.49,11.49,0,0,0,.65-2.29,12.84,12.84,0,0,0,.21-2.29,8.38,8.38,0,0,0-.43-2.74A5.77,5.77,0,0,0,133.76,26.51ZM131,33.78a8.06,8.06,0,0,1-.8,2.15,5,5,0,0,1-1.36,1.6,3.15,3.15,0,0,1-1.94.63,2.4,2.4,0,0,1-2-.94,4,4,0,0,1-.72-2.51,10.24,10.24,0,0,1,.28-2.38,8.29,8.29,0,0,1,.83-2.16,5.12,5.12,0,0,1,1.36-1.61,3,3,0,0,1,1.91-.66,2.28,2.28,0,0,1,1.15.28,2.5,2.5,0,0,1,.84.75,3.33,3.33,0,0,1,.5,1.11,5.17,5.17,0,0,1,.17,1.34A10.84,10.84,0,0,1,131,33.78Z" style="fill:#fff"/><path d="M144.86,25a.37.37,0,0,1-.07-.3l.9-4.63-4.29,1.12-.74,3.66a.36.36,0,0,1-.35.29h-2l-.68,3h1.95a.35.35,0,0,1,.28.14.39.39,0,0,1,.07.3L138.67,35l-.08.41-.05.26c0,.19-.08.45-.11.7a6.36,6.36,0,0,0-.08.68,5.55,5.55,0,0,0,0,.56,6.55,6.55,0,0,0,.17,1.52,3.09,3.09,0,0,0,.58,1.16,2.82,2.82,0,0,0,1.1.77,4.88,4.88,0,0,0,1.8.29,6.35,6.35,0,0,0,.95-.07c.31,0,.63-.09,1-.15s.53-.12.84-.21l.45-.14.58-3-.45.14a6,6,0,0,1-.61.13,2.68,2.68,0,0,1-.52.06,1.45,1.45,0,0,1-1.65-1.63,3.73,3.73,0,0,1,0-.42l.07-.46.09-.5c0-.16.05-.3.07-.43L144,28.45a.34.34,0,0,1,.34-.29h3.34l.67-3h-3.24A.32.32,0,0,1,144.86,25Z" style="fill:#fff"/><path d="M163.08,27.42a3.62,3.62,0,0,0-.91-1.36,4.65,4.65,0,0,0-1.63-1,7.58,7.58,0,0,0-2.5-.37,8.3,8.3,0,0,0-3.69.82,8.76,8.76,0,0,0-2.82,2.19A10.21,10.21,0,0,0,149.71,31a12,12,0,0,0-.63,3.9,8.69,8.69,0,0,0,.36,2.53,5.46,5.46,0,0,0,1.11,2,5.53,5.53,0,0,0,1.95,1.39,7.3,7.3,0,0,0,2.88.52,11.75,11.75,0,0,0,1.58-.11,10.31,10.31,0,0,0,1.45-.3,12,12,0,0,0,1.28-.42c.33-.14.63-.27.89-.41l.56-2.88-.59.28a11,11,0,0,1-1.36.49,9.89,9.89,0,0,1-1.36.32,7.91,7.91,0,0,1-1.24.11,4.25,4.25,0,0,1-1.65-.28,2.92,2.92,0,0,1-1.1-.74,2.69,2.69,0,0,1-.6-1,3.89,3.89,0,0,1-.17-1.11v-.15a1,1,0,0,1,.05-.28.36.36,0,0,1,.33-.26,24.26,24.26,0,0,0,4.84-.48,9.62,9.62,0,0,0,3.05-1.17,4.28,4.28,0,0,0,1.57-1.7,5,5,0,0,0,.46-2.18A4.36,4.36,0,0,0,163.08,27.42Zm-5.1,4a9,9,0,0,1-4,.7h-.25a.38.38,0,0,1-.27-.14.38.38,0,0,1-.07-.31A7.18,7.18,0,0,1,154,30a5.48,5.48,0,0,1,.93-1.38,4.27,4.27,0,0,1,1.22-.92,3.16,3.16,0,0,1,1.43-.34,2,2,0,0,1,1.42.49,1.68,1.68,0,0,1,.53,1.26A2.54,2.54,0,0,1,158,31.44Z" style="fill:#fff"/><path d="M86.27,25c-.55-.08-1.16-.14-1.8-.2s-1.25-.07-1.85-.07a10.45,10.45,0,0,0-3,.42,9.08,9.08,0,0,0-2.45,1.16,8.79,8.79,0,0,0-1.9,1.75,10,10,0,0,0-1.36,2.21,11.8,11.8,0,0,0-.82,2.52,13.22,13.22,0,0,0-.27,2.67,9.72,9.72,0,0,0,.29,2.44A5.53,5.53,0,0,0,74,39.74a4,4,0,0,0,1.37,1.18c.11,0,.89.3,1,.32a6.48,6.48,0,0,0,1.38.15A7.21,7.21,0,0,0,81.86,40l.28-.21-.06.34v0a11.55,11.55,0,0,1-.7,2.34,6,6,0,0,1-1.14,1.74,4.61,4.61,0,0,1-1.66,1.09,6.13,6.13,0,0,1-2.19.36,6.91,6.91,0,0,1-2.52-.46,9.62,9.62,0,0,1-1.73-.86l-.68,3.3a10.81,10.81,0,0,0,2,.73,9.9,9.9,0,0,0,2.62.32A12.16,12.16,0,0,0,80.45,48a7.91,7.91,0,0,0,2.92-1.92,9.24,9.24,0,0,0,1.85-3,22.46,22.46,0,0,0,1.12-3.89l2.73-13.76-1.13-.22C87.42,25.16,86.86,25.07,86.27,25Zm-1.82,3.19-.8,3.91c-.08.39-.19.83-.32,1.29a13.25,13.25,0,0,1-.46,1.34,10.65,10.65,0,0,1-.6,1.27,5.46,5.46,0,0,1-.8,1.1,3.57,3.57,0,0,1-1,.77,2.7,2.7,0,0,1-1.27.3,2,2,0,0,1-1-.25,2.26,2.26,0,0,1-.71-.7,2.81,2.81,0,0,1-.41-1A5.63,5.63,0,0,1,76.93,35a9.61,9.61,0,0,1,.42-2.89,8,8,0,0,1,1.12-2.35,5.62,5.62,0,0,1,1.71-1.6,4.07,4.07,0,0,1,2.14-.6c.35,0,.68,0,1,0a5.83,5.83,0,0,1,.86.13.31.31,0,0,1,.22.16A.37.37,0,0,1,84.45,28.18Z" style="fill:#fff"/><path d="M70.74,25.27c-.53-.11-1.08-.21-1.61-.28s-1.08-.14-1.69-.2-1.15-.07-1.7-.07A11.17,11.17,0,0,0,62,25.3a8.68,8.68,0,0,0-4.53,3.59,12,12,0,0,0-1.12,2.35,12.84,12.84,0,0,0-.56,2.26,13.64,13.64,0,0,0-.15,1.81,10.13,10.13,0,0,0,.3,2.59,5.68,5.68,0,0,0,.87,1.89,3.4,3.4,0,0,0,1.34,1.14,4.67,4.67,0,0,0,2.21.39,6.65,6.65,0,0,0,5-2.33,11.65,11.65,0,0,0-.08,1.6c0,.13,0,.25,0,.34h4c0-.29,0-.6.05-.92,0-.52.08-1,.14-1.52s.11-1,.18-1.49.13-.9.21-1.24l2.05-10.25Zm-3.49,2.91L66.44,32a17.11,17.11,0,0,1-.56,2.1,9,9,0,0,1-.89,2,5.47,5.47,0,0,1-1.26,1.46,2.72,2.72,0,0,1-1.75.61,1.93,1.93,0,0,1-1-.26,2.06,2.06,0,0,1-.72-.69,3.23,3.23,0,0,1-.41-1A5.65,5.65,0,0,1,59.73,35a10,10,0,0,1,.1-1.36,10.32,10.32,0,0,1,.35-1.59,9.1,9.1,0,0,1,.65-1.6,6.28,6.28,0,0,1,1-1.45,5.4,5.4,0,0,1,1.48-1,4.58,4.58,0,0,1,2-.4,7.94,7.94,0,0,1,.83,0,5.88,5.88,0,0,1,.82.13.36.36,0,0,1,.22.16A.37.37,0,0,1,67.25,28.18Z" style="fill:#fff"/><path d="M54.39,23.4a4.71,4.71,0,0,0-3.07-4.52,9.27,9.27,0,0,0-2.92-.38H41L36.51,40.93H44.7a12.81,12.81,0,0,0,3.92-.54,7.92,7.92,0,0,0,2.75-1.47A6,6,0,0,0,53,36.73,6.4,6.4,0,0,0,53.55,34a5,5,0,0,0-3.89-4.67l-.12,0h.12C54.05,28.8,54.39,24.66,54.39,23.4ZM48.8,35.5A3.33,3.33,0,0,1,48,36.73a3.93,3.93,0,0,1-1.44.81,6.47,6.47,0,0,1-2,.28H41.76a.35.35,0,0,1-.34-.44l1.24-6.1A.35.35,0,0,1,43,31h2.58a3.71,3.71,0,0,1,2.58.81A2.92,2.92,0,0,1,49.07,34,4.05,4.05,0,0,1,48.8,35.5ZM49,26.92a3.85,3.85,0,0,1-1.3.69,5.78,5.78,0,0,1-1.68.23h-2.3a.35.35,0,0,1-.28-.14.37.37,0,0,1-.07-.3l1.12-5.49a.36.36,0,0,1,.35-.29h2a5.18,5.18,0,0,1,1.47.18,2.81,2.81,0,0,1,1,.55,2.07,2.07,0,0,1,.61.9,3.41,3.41,0,0,1,.19,1.14,3.5,3.5,0,0,1-.29,1.42A3,3,0,0,1,49,26.92Z" style="fill:#fff"/><path d="M103.78,25c-.51-.08-1.08-.14-1.69-.2s-1.16-.07-1.71-.07a11.11,11.11,0,0,0-3.75.58,8.9,8.9,0,0,0-2.7,1.51,8.72,8.72,0,0,0-1.83,2.08A11.43,11.43,0,0,0,91,31.24a12,12,0,0,0-.56,2.26,12.33,12.33,0,0,0-.16,1.81,10.1,10.1,0,0,0,.31,2.59,5.88,5.88,0,0,0,.86,1.89,3.42,3.42,0,0,0,1.35,1.14,4.65,4.65,0,0,0,2.2.39A6.66,6.66,0,0,0,100,39a12.39,12.39,0,0,0-.09,1.6c0,.13,0,.25,0,.34h4c0-.29,0-.6.05-.92,0-.52.09-1,.14-1.52s.12-1,.19-1.49.13-.9.2-1.24l2.05-10.25-1.12-.24C104.85,25.16,104.31,25.06,103.78,25Zm-1.89,3.19-.8,3.86a19.16,19.16,0,0,1-.57,2.1,8.94,8.94,0,0,1-.88,2,5.66,5.66,0,0,1-1.26,1.46,2.73,2.73,0,0,1-1.76.61,2,2,0,0,1-1-.26,2.12,2.12,0,0,1-.71-.69,3,3,0,0,1-.41-1A5.65,5.65,0,0,1,94.38,35a10,10,0,0,1,.1-1.36,10.32,10.32,0,0,1,.35-1.59,9.1,9.1,0,0,1,.65-1.6,6.28,6.28,0,0,1,1-1.45A5.35,5.35,0,0,1,98,28a4.61,4.61,0,0,1,2-.4,8.13,8.13,0,0,1,.84,0,5.73,5.73,0,0,1,.81.13.35.35,0,0,1,.23.16A.36.36,0,0,1,101.89,28.18Z" style="fill:#fff"/><path d="M60.8,44.26c.86,3.92.45,7.07-1.28,9.06a7.5,7.5,0,0,1-6,2.32,19.75,19.75,0,0,1-5.9-1,58.58,58.58,0,0,0,4.78-4.43,55.84,55.84,0,0,0,4.94-5.91h-.87a54,54,0,0,1-3.6,4.15,52.72,52.72,0,0,1-6.52,5.75c-6.22-2.28-13.12-6.92-19.44-13.08a71.49,71.49,0,0,1-9.55-11.37A53.07,53.07,0,0,1,23.57,22,51.36,51.36,0,0,1,36.21,12.3l.39.31s1.68,1.31,3.63,2.91h1.08C39,13.63,37,12.16,37,12.14L36.8,12A31.51,31.51,0,0,1,50.88,8.16a14.73,14.73,0,0,1,10.06,3.46A11.73,11.73,0,0,1,62.24,13a.3.3,0,0,0,.22.1.29.29,0,0,0,.28-.28.28.28,0,0,0-.08-.2,13.59,13.59,0,0,0-1.8-2,13.29,13.29,0,0,0-2.48-1.77.28.28,0,0,0,0-.45,12.81,12.81,0,0,0-1.79-2,16,16,0,0,0-11-3.79c-5,0-10.64,1.63-16.26,4.72a22.89,22.89,0,0,0-9.95-2.61c-4,0-6.08,1.51-6.16,1.58a11.64,11.64,0,0,0-1.5,1.28c-2.65,3.06-2.61,8.41.13,15.08-.92,1.22-1.78,2.46-2.56,3.71-2.91-6.53-3.15-11.9-.65-14.78a5.25,5.25,0,0,1,1-.9.28.28,0,0,0,.07-.38.29.29,0,0,0-.39-.08,7,7,0,0,0-1.51,1.29c-2.84,3.27-2.6,9.05.65,16.29-6.68,11.52-6.86,22.63-.46,29,.2.2.55.54.94.95.9.91,2.14,2.17,2.62,2.62.26.26.47.47.67.65a16,16,0,0,0,11,3.8c5.17,0,11-1.72,16.73-5a26.73,26.73,0,0,0,11.13,3h0A9.36,9.36,0,0,0,58,60.37l.57-.56c.79-.8,2.11-2.11,2.76-2.76q.33-.3.63-.63c2.25-2.6,2.54-6.89.92-12.16ZM46.66,3.94A14.68,14.68,0,0,1,56.71,7.4a11.21,11.21,0,0,1,1.12,1.16,17.61,17.61,0,0,0-7.94-1.73,33.6,33.6,0,0,0-14.76,3.93,44.06,44.06,0,0,0-3.72-2.37A32.34,32.34,0,0,1,46.66,3.94ZM30.75,8.76c1.53.83,2.84,1.68,3.77,2.31a54.25,54.25,0,0,0-13.8,10.46,57.32,57.32,0,0,0-4.86,5.77c-.64-1.08-1.23-2.15-1.76-3.2a54.27,54.27,0,0,1,5.25-6.37A51.47,51.47,0,0,1,30.75,8.76ZM12.66,7.64c.14-.15.66-.59,1-.86,3.9-2.19,9.09-1.84,15.05.94a54.77,54.77,0,0,0-12.2,9.59C15.23,18.63,14,20,12.88,21.43,10.35,15.28,10.27,10.4,12.66,7.64Zm.53,17.8c.52,1,1.1,2.11,1.73,3.18-.83,1.21-1.62,2.46-2.33,3.72-.61-1-1.19-2-1.71-2.92A45.62,45.62,0,0,1,13.19,25.44ZM7.57,48.25C6.3,43.44,7.18,37.29,10.1,31c.51.95,1.07,1.91,1.66,2.86A34.84,34.84,0,0,0,7.57,48.25Zm18,14a14.65,14.65,0,0,1-10-3.46c-5-4.54-5.72-12.75-1.86-22a77,77,0,0,0,9.25,10.79A69,69,0,0,0,38.3,59,30.7,30.7,0,0,1,25.57,62.2ZM23,45a72.72,72.72,0,0,1-8.58-10c.62-1.31,1.32-2.62,2.09-3.91A76.09,76.09,0,0,0,26.85,43.57a67.11,67.11,0,0,0,17,12.34c-.91.6-1.84,1.16-2.76,1.68C35.25,55.16,28.81,50.7,23,45ZM49.6,59.57a20.89,20.89,0,0,1-6.86-1.36c.83-.54,1.65-1.11,2.45-1.7a29,29,0,0,0,8.06,2.41A9.55,9.55,0,0,1,49.6,59.57Z" style="fill:#fff"/></svg>