<svg xmlns="http://www.w3.org/2000/svg" viewBox="0 0 166.75 84.88"><title>logo_adm</title><path d="M69,19.9H52.23V61.43H69A20.77,20.77,0,0,0,69,19.9Zm0,35.49H58.13V26H69a14.73,14.73,0,0,1,0,29.45Z" style="fill:#0078e6"/><path d="M13.38,61.43h6.29V45.33A31.61,31.61,0,0,0,13.38,43Z" style="fill:#0078e6"/><path d="M29.14,19.88A15.57,15.57,0,0,0,14.31,30.62a44.5,44.5,0,0,1,5.87,1.63,9.55,9.55,0,0,1,18.54,3.24v14.3l-.24-.33A40.93,40.93,0,0,0,5.66,32.79c-.59,0-1.18.05-1.76.08l-.53,0v6.17h.19C4.24,39,5,39,5.66,39A34.75,34.75,0,0,1,38,61.43h6.74V35.36A15.66,15.66,0,0,0,29.14,19.88Z" style="fill:#0078e6"/><path d="M18.43,72.12a2,2,0,0,0,1.39-.8A2.38,2.38,0,0,0,20.25,70a2.68,2.68,0,0,0-.72-2,3,3,0,0,0-2.2-.74H13.4v10h4a3,3,0,0,0,2.14-.75,2.57,2.57,0,0,0,.79-2v0a2.51,2.51,0,0,0-.51-1.55A2.07,2.07,0,0,0,18.43,72.12Zm-1.35-3.76q2,0,2,1.62c0,1.06-.59,1.59-1.76,1.59H14.59V68.36Zm2.08,6.08a1.56,1.56,0,0,1-.51,1.22,2.53,2.53,0,0,1-1.72.47H14.59V72.65h2.68a1.89,1.89,0,0,1,1.45.48,1.85,1.85,0,0,1,.44,1.29Z" style="fill:#787878"/><path d="M25.79,67.25l-3.68,10h1.31l.8-2.3h4.33l.81,2.3h1.3L27,67.25ZM24.62,73.8l1.77-5.07,1.77,5.07Z" style="fill:#787878"/><path d="M36,73.12h2.23v.5a2.79,2.79,0,0,1-.59,1.93,2.14,2.14,0,0,1-1.67.64,2.32,2.32,0,0,1-1.72-.61,2.43,2.43,0,0,1-.61-1.76V70.88a2.81,2.81,0,0,1,.6-1.92,2.36,2.36,0,0,1,3-.21,2.46,2.46,0,0,1,.8,1.36h1.29a4.05,4.05,0,0,0-.65-1.6,3.07,3.07,0,0,0-1.17-1A3.72,3.72,0,0,0,36,67.15a3.83,3.83,0,0,0-1.89.43,2.92,2.92,0,0,0-1.19,1.27,4.48,4.48,0,0,0-.41,2v2.94a4,4,0,0,0,.41,1.9,2.78,2.78,0,0,0,1.2,1.2,4.06,4.06,0,0,0,1.92.41,3.83,3.83,0,0,0,1.89-.43,2.87,2.87,0,0,0,1.19-1.27,4.51,4.51,0,0,0,.41-2V72H36Z" style="fill:#787878"/><path d="M45,67.25l-3.68,10H42.6l.8-2.3h4.34l.8,2.3h1.31l-3.68-10ZM43.8,73.8l1.77-5.07,1.77,5.07Z" style="fill:#787878"/><path d="M57.61,72.65a2.53,2.53,0,0,0,1-1,3.15,3.15,0,0,0,.34-1.51,3.19,3.19,0,0,0-.34-1.52,2.5,2.5,0,0,0-1-1,2.86,2.86,0,0,0-1.45-.36h-4.1v10h1.19V73h2.53l2.13,4.22h1.42L57,72.88A2.35,2.35,0,0,0,57.61,72.65Zm-4.36-4.28h3a1.31,1.31,0,0,1,1.07.48,1.93,1.93,0,0,1,.41,1.28,1.9,1.9,0,0,1-.41,1.27,1.31,1.31,0,0,1-1.07.48h-3Z" style="fill:#787878"/><path d="M67,67.59a3.81,3.81,0,0,0-1.88-.44,3.77,3.77,0,0,0-1.87.44A3,3,0,0,0,62,68.86a4.31,4.31,0,0,0-.42,2v2.83a4.29,4.29,0,0,0,.42,2,2.91,2.91,0,0,0,1.21,1.27,3.67,3.67,0,0,0,1.87.44A3.71,3.71,0,0,0,67,76.89a3,3,0,0,0,1.21-1.27,4.29,4.29,0,0,0,.42-2V70.83a4.31,4.31,0,0,0-.42-2A3,3,0,0,0,67,67.59Zm.42,6.11a2.57,2.57,0,0,1-.61,1.82,2.45,2.45,0,0,1-3.37,0,2.57,2.57,0,0,1-.62-1.82V70.78A2.57,2.57,0,0,1,63.44,69a2.48,2.48,0,0,1,3.37,0,2.57,2.57,0,0,1,.61,1.82Z" style="fill:#787878"/><polygon points="70.22 68.38 73.15 68.38 73.15 77.23 74.34 77.23 74.34 68.38 77.27 68.38 77.27 67.25 70.22 67.25 70.22 68.38" style="fill:#787878"/><polygon points="85.48 68.38 85.48 67.25 80.26 67.25 79.75 67.25 79.07 67.25 79.07 77.23 79.75 77.23 80.26 77.23 85.48 77.23 85.48 76.11 80.26 76.11 80.26 72.84 84.72 72.84 84.72 71.71 80.26 71.71 80.26 68.38 85.48 68.38" style="fill:#787878"/><polygon points="130.16 8.75 149.02 19.64 154.91 16.24 130.16 1.95 105.4 16.24 111.3 19.64 130.16 8.75" style="fill:#b4b4b4"/><polygon points="154.91 23.04 157.48 21.56 157.48 21.56 154.91 23.04 154.91 23.04" style="fill:#288cff"/><polygon points="160.81 19.64 157.48 21.56 157.48 21.56 154.91 23.04 130.16 37.34 105.4 23.04 102.83 21.56 102.83 21.56 99.51 19.64 96.94 21.13 96.94 24.96 96.94 60.93 102.83 57.52 102.83 28.36 130.16 44.14 157.48 28.36 157.48 57.54 157.48 57.54 163.38 60.94 163.38 24.96 163.38 21.13 160.81 19.64" style="fill:#0078e6"/><polygon points="133.13 74.56 133.13 52.01 130.16 53.73 127.24 52.04 127.24 74.59 109 65.04 103.05 68.47 130.16 82.93 157.25 68.48 151.3 65.04 133.13 74.56" style="fill:#b4b4b4"/></svg>