<svg xmlns="http://www.w3.org/2000/svg" xmlns:xlink="http://www.w3.org/1999/xlink" viewBox="0 0 166.75 67.48"><defs><linearGradient id="a" x1="33.66" y1="4.41" x2="33.66" y2="64.99" gradientUnits="userSpaceOnUse"><stop offset="0.5" stop-color="#ffc800"/><stop offset="1" stop-color="#ff5a00"/></linearGradient></defs><path d="M60.79,38.93l.07-.11a.29.29,0,0,0-.33-.41A70,70,0,0,0,47,20.43c-3.54-3.45-9.89-8.25-10-8.29L36.8,12A31.51,31.51,0,0,1,50.88,8.16a14.73,14.73,0,0,1,10.06,3.46A11.73,11.73,0,0,1,62.24,13a.3.3,0,0,0,.22.1.29.29,0,0,0,.28-.28.28.28,0,0,0-.08-.2,13.59,13.59,0,0,0-1.8-2,13.29,13.29,0,0,0-2.48-1.77.28.28,0,0,0,0-.45,12.81,12.81,0,0,0-1.79-2,16,16,0,0,0-11-3.79c-5,0-10.64,1.63-16.26,4.72a22.89,22.89,0,0,0-9.95-2.61c-4,0-6.08,1.51-6.16,1.58a11.64,11.64,0,0,0-1.5,1.28c-2.65,3.06-2.61,8.41.13,15.08-.92,1.22-1.78,2.46-2.56,3.71-2.91-6.53-3.15-11.9-.65-14.78a5.25,5.25,0,0,1,1-.9.28.28,0,0,0,.07-.38.29.29,0,0,0-.39-.08,7,7,0,0,0-1.51,1.29c-2.84,3.27-2.6,9.05.65,16.29-6.68,11.52-6.86,22.63-.46,29,.2.2.55.54.94.95.9.91,2.14,2.17,2.62,2.62.26.26.47.47.67.65a16,16,0,0,0,11,3.8c5.17,0,11-1.72,16.73-5a26.73,26.73,0,0,0,11.13,3h0A9.36,9.36,0,0,0,58,60.37l.57-.56c.79-.8,2.11-2.11,2.76-2.76q.33-.3.63-.63C65,53,64.53,46.62,60.79,38.93ZM28.7,7.72a54.77,54.77,0,0,0-12.2,9.59C15.23,18.63,14,20,12.88,21.43c-2.53-6.15-2.61-11-.22-13.79.14-.15.66-.59,1-.86C17.55,4.59,22.74,4.94,28.7,7.72Zm24.55,51.2a9.55,9.55,0,0,1-3.65.65,20.89,20.89,0,0,1-6.86-1.36c.83-.54,1.65-1.11,2.45-1.7A29,29,0,0,0,53.25,58.92ZM20.72,21.53a57.32,57.32,0,0,0-4.86,5.77c-.64-1.08-1.23-2.15-1.76-3.2a54.27,54.27,0,0,1,5.25-6.37,51.47,51.47,0,0,1,11.4-9c1.53.83,2.84,1.68,3.77,2.31A54.25,54.25,0,0,0,20.72,21.53Zm-9.84,7.89a45.62,45.62,0,0,1,2.31-4c.52,1,1.1,2.11,1.73,3.18-.83,1.21-1.62,2.46-2.33,3.72C12,31.36,11.4,30.38,10.88,29.42Zm2.78,7.3a77,77,0,0,0,9.25,10.79A69,69,0,0,0,38.3,59,30.7,30.7,0,0,1,25.57,62.2a14.65,14.65,0,0,1-10-3.46C10.49,54.2,9.8,46,13.66,36.72Zm2.83-5.58A76.09,76.09,0,0,0,26.85,43.57a67.11,67.11,0,0,0,17,12.34c-.91.6-1.84,1.16-2.76,1.68C35.25,55.16,28.81,50.7,23,45a72.72,72.72,0,0,1-8.58-10C15,33.74,15.72,32.43,16.49,31.14Zm35.93,19a54.84,54.84,0,0,0,7.33-9.46c2.07,5.59,2,10-.23,12.61a7.5,7.5,0,0,1-6,2.32,19.75,19.75,0,0,1-5.9-1A58.58,58.58,0,0,0,52.42,50.17ZM11.76,33.86A34.84,34.84,0,0,0,7.57,48.25C6.3,43.44,7.18,37.29,10.1,31,10.61,32,11.17,32.91,11.76,33.86ZM52.89,48.41a52.72,52.72,0,0,1-6.52,5.75c-6.22-2.28-13.12-6.92-19.44-13.08a71.49,71.49,0,0,1-9.55-11.37A53.07,53.07,0,0,1,23.57,22,51.36,51.36,0,0,1,36.21,12.3l.39.31c.06,0,6,4.66,8.66,7.27C51.74,26.2,56.92,33.53,59.48,40A51.33,51.33,0,0,1,52.89,48.41Zm-3-41.58a33.6,33.6,0,0,0-14.76,3.93,44.06,44.06,0,0,0-3.72-2.37A32.34,32.34,0,0,1,46.66,3.94,14.68,14.68,0,0,1,56.71,7.4a11.21,11.21,0,0,1,1.12,1.16A17.61,17.61,0,0,0,49.89,6.83Z" style="fill:url(#a)"/></svg>